{
	"asset":{
		"generator":"Khronos glTF Blender I/O v4.3.47",
		"version":"2.0"
	},
	"scene":0,
	"scenes":[
		{
			"name":"Scene",
			"nodes":[
				52
			]
		}
	],
	"nodes":[
		{
			"name":"spine_end",
			"rotation":[
				-3.429959463119303e-07,
				-1.234002500183351e-08,
				-4.423782229423523e-09,
				1
			],
			"scale":[
				1,
				0.9999999403953552,
				0.9999999403953552
			],
			"translation":[
				-2.3283064365386963e-10,
				0.06304701417684555,
				4.301182343624532e-08
			]
		},
		{
			"children":[
				0
			],
			"name":"spine",
			"rotation":[
				0.2464701533317566,
				-0.002269244287163019,
				0.008454486727714539,
				0.9691108465194702
			],
			"scale":[
				1,
				1,
				0.9999998807907104
			],
			"translation":[
				2.9103830456733704e-11,
				0.11395502835512161,
				-2.9818693292327225e-08
			]
		},
		{
			"children":[
				1
			],
			"name":"spine.001",
			"rotation":[
				0.31189244985580444,
				0.002037112368270755,
				0.0077812280505895615,
				0.9500833749771118
			],
			"translation":[
				8.881784197001252e-16,
				0.09145478904247284,
				3.7252894102834944e-09
			]
		},
		{
			"children":[
				2
			],
			"name":"spine.002",
			"rotation":[
				-0.9601019024848938,
				-9.592196370533657e-09,
				-8.177462973435468e-08,
				0.2796504497528076
			],
			"scale":[
				1,
				1,
				0.999999463558197
			],
			"translation":[
				1.752509248831302e-10,
				0.0012158583849668503,
				-0.0014668405055999756
			]
		},
		{
			"name":"Wing.002.L_end",
			"rotation":[
				3.3527612686157227e-08,
				-4.470348358154297e-08,
				3.725290298461914e-09,
				1
			],
			"translation":[
				0,
				0.14814713597297668,
				1.1175870895385742e-08
			]
		},
		{
			"children":[
				4
			],
			"name":"Wing.002.L",
			"rotation":[
				0.005270814057439566,
				0.026268327608704567,
				-0.03851725906133652,
				0.9988986849784851
			],
			"scale":[
				1,
				0.9999998211860657,
				1
			],
			"translation":[
				-2.421438694000244e-08,
				0.1609133630990982,
				1.6763806343078613e-08
			]
		},
		{
			"children":[
				5
			],
			"name":"Wing.001.L",
			"rotation":[
				-0.20750746130943298,
				0.13034597039222717,
				0.045405566692352295,
				0.968446671962738
			],
			"scale":[
				0.9999999403953552,
				0.9999999403953552,
				1
			],
			"translation":[
				-3.725290298461914e-09,
				0.08592956513166428,
				-1.3504177331924438e-08
			]
		},
		{
			"children":[
				6
			],
			"name":"Wing.L",
			"rotation":[
				0.7417631149291992,
				0.0680249035358429,
				-0.37095907330513,
				0.5545713901519775
			],
			"scale":[
				1,
				1,
				1.0000001192092896
			],
			"translation":[
				0.0008661141619086266,
				0.09712516516447067,
				0.005207235924899578
			]
		},
		{
			"children":[
				7
			],
			"name":"shoulder.L",
			"rotation":[
				-0.3349861204624176,
				0.495834082365036,
				-0.3531401753425598,
				0.7191835045814514
			],
			"translation":[
				0.004151422530412674,
				-0.010520381852984428,
				0.040286898612976074
			]
		},
		{
			"name":"beak.001.T_end",
			"rotation":[
				-2.448214218020439e-07,
				-1.3969838619232178e-08,
				-2.8870999813079834e-08,
				1
			],
			"translation":[
				7.101334631443024e-09,
				0.05049799010157585,
				2.4854671210050583e-08
			]
		},
		{
			"children":[
				9
			],
			"name":"beak.001.T",
			"rotation":[
				0.8472239375114441,
				0.05373802408576012,
				0.051982391625642776,
				0.5259484648704529
			],
			"scale":[
				1,
				0.9999998807907104,
				0.9999998211860657
			],
			"translation":[
				-0.0027609474491328,
				0.04729653522372246,
				0.04417536407709122
			]
		},
		{
			"name":"beak_001.B_end",
			"rotation":[
				2.8870999813079834e-08,
				-1.2922100722789764e-08,
				3.259629011154175e-08,
				1
			],
			"translation":[
				-5.471520125865936e-09,
				0.03929292783141136,
				1.0244548320770264e-08
			]
		},
		{
			"children":[
				11
			],
			"name":"beak_001.B",
			"rotation":[
				0.6536739468574524,
				0.3290265202522278,
				0.31846049427986145,
				0.6025237441062927
			],
			"scale":[
				1,
				1.0000001192092896,
				0.9999999403953552
			],
			"translation":[
				-0.002745360368862748,
				0.026946809142827988,
				0.037650879472494125
			]
		},
		{
			"children":[
				10,
				12
			],
			"name":"head",
			"rotation":[
				-0.0034099104814231396,
				-0.00037278723903000355,
				0.0010701080318540335,
				0.9999935030937195
			],
			"translation":[
				-1.2369127944111824e-10,
				0.04463827610015869,
				-2.156639311579056e-09
			]
		},
		{
			"children":[
				13
			],
			"name":"neck.002",
			"rotation":[
				-0.007389269769191742,
				0.00021119524899404496,
				0.0151613624766469,
				0.9998577237129211
			],
			"scale":[
				1,
				1,
				1.0000001192092896
			],
			"translation":[
				-1.862645149230957e-09,
				0.03606467321515083,
				3.580368002076284e-09
			]
		},
		{
			"children":[
				14
			],
			"name":"neck.001",
			"rotation":[
				-0.0827866867184639,
				-0.002463132841512561,
				0.006588748190551996,
				0.9965425133705139
			],
			"scale":[
				1,
				1,
				1.0000001192092896
			],
			"translation":[
				4.48198989033699e-09,
				0.030148819088935852,
				2.763681550277397e-08
			]
		},
		{
			"children":[
				15
			],
			"name":"spine.006",
			"rotation":[
				-0.09158165752887726,
				-0.002876937622204423,
				-0.02298966981470585,
				0.9955280423164368
			],
			"scale":[
				1,
				1.0000001192092896,
				1.0000001192092896
			],
			"translation":[
				-1.5543122344752192e-15,
				0.0675467848777771,
				-5.587935447692871e-08
			]
		},
		{
			"name":"Wing.002.R_end",
			"rotation":[
				1.2852251529693604e-07,
				-3.967434452079033e-07,
				1.7136335372924805e-07,
				1
			],
			"scale":[
				1,
				1,
				0.9999999403953552
			],
			"translation":[
				-3.725290298461914e-08,
				0.14119328558444977,
				3.166496753692627e-08
			]
		},
		{
			"children":[
				17
			],
			"name":"Wing.002.R",
			"rotation":[
				0.03422755002975464,
				0.0065126740373671055,
				0.08737805485725403,
				0.9955657720565796
			],
			"scale":[
				1,
				0.9999998807907104,
				0.9999999403953552
			],
			"translation":[
				-2.9802322387695312e-08,
				0.14492900669574738,
				4.516914486885071e-08
			]
		},
		{
			"children":[
				18
			],
			"name":"Wing.001.R",
			"rotation":[
				-0.2652447819709778,
				-0.1098092794418335,
				0.015858259052038193,
				0.9577764272689819
			],
			"scale":[
				0.9999998807907104,
				0.9999998211860657,
				0.9999999403953552
			],
			"translation":[
				-1.210719347000122e-08,
				0.0859295129776001,
				6.984919309616089e-09
			]
		},
		{
			"children":[
				19
			],
			"name":"Wing.R",
			"rotation":[
				0.741763174533844,
				-0.06802483648061752,
				0.3709588050842285,
				0.5545716285705566
			],
			"scale":[
				1,
				0.9999999403953552,
				1
			],
			"translation":[
				-0.0008660852909088135,
				0.0971250981092453,
				0.005207231268286705
			]
		},
		{
			"children":[
				20
			],
			"name":"shoulder.R",
			"rotation":[
				-0.33498597145080566,
				-0.495834082365036,
				0.3531402349472046,
				0.7191835045814514
			],
			"scale":[
				1.000000238418579,
				1.0000001192092896,
				1.0000001192092896
			],
			"translation":[
				-0.00415140762925148,
				-0.010520381852984428,
				0.040286898612976074
			]
		},
		{
			"children":[
				8,
				16,
				21
			],
			"name":"spine.005",
			"rotation":[
				-0.4217207133769989,
				-1.6770620447914553e-08,
				5.528719881908728e-08,
				0.9067257642745972
			],
			"scale":[
				1,
				1.000000238418579,
				1.0000001192092896
			],
			"translation":[
				-1.8041124150158794e-14,
				0.09239416569471359,
				-3.67872416973114e-08
			]
		},
		{
			"name":"pelvis.L_end",
			"rotation":[
				6.332993507385254e-08,
				-9.685754065458241e-08,
				4.842877388000488e-08,
				1
			],
			"scale":[
				1.0000001192092896,
				0.9999999403953552,
				1
			],
			"translation":[
				1.5832483768463135e-08,
				0.08827424049377441,
				1.30385160446167e-08
			]
		},
		{
			"children":[
				23
			],
			"name":"pelvis.L",
			"rotation":[
				0.5876637101173401,
				0.7598757743835449,
				0.10330305248498917,
				0.25800907611846924
			],
			"scale":[
				1,
				0.9999996423721313,
				0.9999999403953552
			],
			"translation":[
				-2.4424906541753444e-15,
				-1.5192199498414993e-08,
				5.21540641784668e-08
			]
		},
		{
			"name":"pelvis.R_end",
			"rotation":[
				9.313225746154785e-08,
				7.450580596923828e-09,
				-1.1175870895385742e-08,
				1
			],
			"translation":[
				-4.6566128730773926e-09,
				0.0882742628455162,
				-9.313225746154785e-09
			]
		},
		{
			"children":[
				25
			],
			"name":"pelvis.R",
			"rotation":[
				0.5876637101173401,
				-0.7598757743835449,
				-0.10330317169427872,
				0.2580091655254364
			],
			"scale":[
				1,
				1,
				1.0000001192092896
			],
			"translation":[
				-2.4424906541753444e-15,
				-1.5192199498414993e-08,
				5.21540641784668e-08
			]
		},
		{
			"name":"toe.L_end",
			"rotation":[
				4.249159246683121e-09,
				6.974005373194814e-09,
				4.150206223130226e-08,
				1
			],
			"scale":[
				1,
				0.9999999403953552,
				1
			],
			"translation":[
				-1.7462298274040222e-10,
				0.061830852180719376,
				-1.1641532182693481e-09
			]
		},
		{
			"children":[
				27
			],
			"name":"toe.L",
			"rotation":[
				0.5933911204338074,
				-0.47720834612846375,
				0.36900684237480164,
				0.5329100489616394
			],
			"scale":[
				1.0000001192092896,
				1.0000001192092896,
				1
			],
			"translation":[
				-1.3321750369499341e-09,
				0.024276308715343475,
				7.592009243495568e-10
			]
		},
		{
			"name":"foot.L.002_end",
			"rotation":[
				5.474930286908375e-09,
				-6.77391565062635e-09,
				-1.0796269656054847e-08,
				1
			],
			"scale":[
				1.0000001192092896,
				1,
				1.0000001192092896
			],
			"translation":[
				-1.1059455573558807e-09,
				0.05309957638382912,
				-3.7834979593753815e-10
			]
		},
		{
			"children":[
				29
			],
			"name":"foot.L.002",
			"rotation":[
				0.34795257449150085,
				-0.44949230551719666,
				0.6155657172203064,
				0.5458614826202393
			],
			"scale":[
				1,
				1.0000001192092896,
				1
			],
			"translation":[
				-1.187795195534136e-09,
				0.015125660225749016,
				-6.559750520551688e-10
			]
		},
		{
			"children":[
				30
			],
			"name":"foot.L.001",
			"rotation":[
				-0.7064626216888428,
				0.17109301686286926,
				0.030176030471920967,
				0.6860955953598022
			],
			"scale":[
				1,
				0.9999998807907104,
				0.9999999403953552
			],
			"translation":[
				-1.3321750369499341e-09,
				0.024276308715343475,
				7.592009243495568e-10
			]
		},
		{
			"name":"foot.L.004_end",
			"rotation":[
				-5.8498699218034744e-09,
				-5.250331369666128e-08,
				3.987224772572517e-09,
				1
			],
			"scale":[
				0.9999999403953552,
				1,
				1
			],
			"translation":[
				-2.473825588822365e-09,
				0.05309971794486046,
				2.3283064365386963e-09
			]
		},
		{
			"children":[
				32
			],
			"name":"foot.L.004",
			"rotation":[
				-0.2685210108757019,
				-0.13538450002670288,
				-0.6532765626907349,
				0.6948361396789551
			],
			"scale":[
				1,
				1.0000001192092896,
				0.9999999403953552
			],
			"translation":[
				1.8208465846214494e-09,
				0.014644885435700417,
				4.054476754333791e-10
			]
		},
		{
			"children":[
				33
			],
			"name":"foot.L.003",
			"rotation":[
				-0.17902398109436035,
				-0.7067645788192749,
				-0.684069037437439,
				0.021995635703206062
			],
			"scale":[
				1,
				1.000000238418579,
				1
			],
			"translation":[
				-1.3321750369499341e-09,
				0.024276308715343475,
				7.592009243495568e-10
			]
		},
		{
			"children":[
				28,
				31,
				34
			],
			"name":"foot.L",
			"rotation":[
				2.221473209829128e-07,
				-0.8404403924942017,
				-1.9655551852792996e-07,
				0.5419040322303772
			],
			"scale":[
				0.9999999403953552,
				1,
				0.9999999403953552
			],
			"translation":[
				-4.465910308226739e-09,
				0.0916820541024208,
				6.00611915757554e-09
			]
		},
		{
			"children":[
				35
			],
			"name":"shin.L",
			"rotation":[
				0.10401374101638794,
				0.03656192868947983,
				0.0771854892373085,
				0.9909020066261292
			],
			"scale":[
				0.9999999403953552,
				0.9999998807907104,
				0.9999999403953552
			],
			"translation":[
				3.3760443329811096e-09,
				0.09663376957178116,
				-4.889443516731262e-09
			]
		},
		{
			"children":[
				36
			],
			"name":"thigh.L",
			"rotation":[
				0.7316636443138123,
				0.0751522034406662,
				-0.015814760699868202,
				0.6773258447647095
			],
			"scale":[
				0.9999999403953552,
				1,
				1.0000001192092896
			],
			"translation":[
				0.04418293014168739,
				0.02368069812655449,
				0.05342843383550644
			]
		},
		{
			"name":"toe.R_end",
			"rotation":[
				-3.6263376301803874e-08,
				-6.819391984436152e-08,
				1.2631064194579267e-08,
				1
			],
			"scale":[
				0.9999999403953552,
				0.9999999403953552,
				0.9999999403953552
			],
			"translation":[
				6.693881005048752e-10,
				0.061830878257751465,
				-5.820766091346741e-11
			]
		},
		{
			"children":[
				38
			],
			"name":"toe.R",
			"rotation":[
				0.5933910012245178,
				0.47720834612846375,
				-0.3690071702003479,
				0.5329099893569946
			],
			"scale":[
				0.9999999403953552,
				0.9999998807907104,
				1
			],
			"translation":[
				1.93816296345517e-09,
				0.024276286363601685,
				-9.99081706254401e-09
			]
		},
		{
			"name":"foot.R.002_end",
			"rotation":[
				-3.4361619327683e-08,
				7.421475878288675e-09,
				-6.703612598357722e-08,
				1
			],
			"scale":[
				1,
				1,
				1.0000001192092896
			],
			"translation":[
				-1.1641532182693481e-10,
				0.053099583834409714,
				-8.847564458847046e-09
			]
		},
		{
			"children":[
				40
			],
			"name":"foot.R.002",
			"rotation":[
				0.34795254468917847,
				0.4494921863079071,
				-0.6155657768249512,
				0.5458614826202393
			],
			"scale":[
				1.0000001192092896,
				1.0000001192092896,
				1
			],
			"translation":[
				8.320721889276683e-10,
				0.015125659294426441,
				8.112908123081297e-10
			]
		},
		{
			"children":[
				41
			],
			"name":"foot.R.001",
			"rotation":[
				-0.7064628005027771,
				-0.1710927039384842,
				-0.03017585352063179,
				0.6860955357551575
			],
			"scale":[
				1,
				0.9999998807907104,
				1
			],
			"translation":[
				1.93816296345517e-09,
				0.024276286363601685,
				-9.99081706254401e-09
			]
		},
		{
			"name":"foot.R.004_end",
			"rotation":[
				-5.427864380180836e-08,
				-9.58316377364099e-08,
				-4.045432433485985e-08,
				1
			],
			"translation":[
				-4.0745362639427185e-10,
				0.05309971794486046,
				-4.656612873077393e-10
			]
		},
		{
			"children":[
				43
			],
			"name":"foot.R.004",
			"rotation":[
				-0.26852118968963623,
				0.13538457453250885,
				0.6532765626907349,
				0.6948360800743103
			],
			"scale":[
				0.9999999403953552,
				1,
				1
			],
			"translation":[
				1.4337415699117173e-09,
				0.014644860289990902,
				7.002856072801933e-10
			]
		},
		{
			"children":[
				44
			],
			"name":"foot.R.003",
			"rotation":[
				-0.17902375757694244,
				0.7067647576332092,
				0.6840689182281494,
				0.021995477378368378
			],
			"scale":[
				1.0000001192092896,
				1.0000001192092896,
				1
			],
			"translation":[
				1.93816296345517e-09,
				0.024276286363601685,
				-9.99081706254401e-09
			]
		},
		{
			"children":[
				39,
				42,
				45
			],
			"name":"foot.R",
			"rotation":[
				4.3738708654927905e-07,
				0.8404403328895569,
				6.180052025683835e-08,
				0.541904091835022
			],
			"scale":[
				1,
				1,
				1.0000001192092896
			],
			"translation":[
				-3.4052627384539846e-09,
				0.09168211370706558,
				-1.0664091831813494e-10
			]
		},
		{
			"children":[
				46
			],
			"name":"shin.R",
			"rotation":[
				0.10401369631290436,
				-0.036562129855155945,
				-0.07718555629253387,
				0.9909020066261292
			],
			"scale":[
				1.0000001192092896,
				0.9999999403953552,
				0.9999999403953552
			],
			"translation":[
				-1.2863893061876297e-08,
				0.09663378447294235,
				1.5366822481155396e-08
			]
		},
		{
			"children":[
				47
			],
			"name":"thigh.R",
			"rotation":[
				0.7316636443138123,
				-0.07515203952789307,
				0.015814736485481262,
				0.6773259043693542
			],
			"scale":[
				1,
				1.0000001192092896,
				1.0000001192092896
			],
			"translation":[
				-0.0441829077899456,
				0.02368069440126419,
				0.053428467363119125
			]
		},
		{
			"children":[
				22,
				24,
				26,
				37,
				48
			],
			"name":"spine.004",
			"rotation":[
				0.19658690690994263,
				-1.389936699069949e-07,
				-4.3812429240119855e-09,
				0.9804864525794983
			],
			"scale":[
				1,
				0.9999999403953552,
				0.9999999403953552
			],
			"translation":[
				-8.881784197001252e-16,
				0.09975597262382507,
				4.842877388000488e-08
			]
		},
		{
			"children":[
				3,
				49
			],
			"name":"spine.003",
			"rotation":[
				-6.8161729593896325e-09,
				-0.9050347805023193,
				0.4253375828266144,
				9.36241448812325e-08
			],
			"scale":[
				1,
				0.9999998211860657,
				0.9999998807907104
			],
			"translation":[
				1.16914735670548e-08,
				0.19965650141239166,
				0.15659207105636597
			]
		},
		{
			"mesh":0,
			"name":"pCube1",
			"skin":0
		},
		{
			"children":[
				51,
				50
			],
			"name":"metarig"
		}
	],
	"meshes":[
		{
			"name":"Mesh.001",
			"primitives":[
				{
					"attributes":{
						"POSITION":0,
						"NORMAL":1,
						"TEXCOORD_0":2,
						"TEXCOORD_1":3,
						"COLOR_0":4,
						"JOINTS_0":5,
						"WEIGHTS_0":6
					},
					"indices":7
				}
			]
		}
	],
	"skins":[
		{
			"inverseBindMatrices":8,
			"joints":[
				50,
				3,
				2,
				1,
				0,
				49,
				22,
				8,
				7,
				6,
				5,
				4,
				16,
				15,
				14,
				13,
				10,
				9,
				12,
				11,
				21,
				20,
				19,
				18,
				17,
				24,
				23,
				26,
				25,
				37,
				36,
				35,
				28,
				27,
				31,
				30,
				29,
				34,
				33,
				32,
				48,
				47,
				46,
				39,
				38,
				42,
				41,
				40,
				45,
				44,
				43
			],
			"name":"metarig"
		}
	],
	"accessors":[
		{
			"bufferView":0,
			"componentType":5126,
			"count":5063,
			"max":[
				0.34102970361709595,
				0.6011887788772583,
				0.380474328994751
			],
			"min":[
				-0.3862392008304596,
				-3.5070193860065046e-08,
				-0.13565468788146973
			],
			"type":"VEC3"
		},
		{
			"bufferView":1,
			"componentType":5126,
			"count":5063,
			"type":"VEC3"
		},
		{
			"bufferView":2,
			"componentType":5126,
			"count":5063,
			"type":"VEC2"
		},
		{
			"bufferView":3,
			"componentType":5126,
			"count":5063,
			"type":"VEC2"
		},
		{
			"bufferView":4,
			"componentType":5123,
			"count":5063,
			"normalized":true,
			"type":"VEC4"
		},
		{
			"bufferView":5,
			"componentType":5121,
			"count":5063,
			"type":"VEC4"
		},
		{
			"bufferView":6,
			"componentType":5126,
			"count":5063,
			"type":"VEC4"
		},
		{
			"bufferView":7,
			"componentType":5123,
			"count":7842,
			"type":"SCALAR"
		},
		{
			"bufferView":8,
			"componentType":5126,
			"count":51,
			"type":"MAT4"
		}
	],
	"bufferViews":[
		{
			"buffer":0,
			"byteLength":60756,
			"byteOffset":0,
			"target":34962
		},
		{
			"buffer":0,
			"byteLength":60756,
			"byteOffset":60756,
			"target":34962
		},
		{
			"buffer":0,
			"byteLength":40504,
			"byteOffset":121512,
			"target":34962
		},
		{
			"buffer":0,
			"byteLength":40504,
			"byteOffset":162016,
			"target":34962
		},
		{
			"buffer":0,
			"byteLength":40504,
			"byteOffset":202520,
			"target":34962
		},
		{
			"buffer":0,
			"byteLength":20252,
			"byteOffset":243024,
			"target":34962
		},
		{
			"buffer":0,
			"byteLength":81008,
			"byteOffset":263276,
			"target":34962
		},
		{
			"buffer":0,
			"byteLength":15684,
			"byteOffset":344284,
			"target":34963
		},
		{
			"buffer":0,
			"byteLength":3264,
			"byteOffset":359968
		}
	],
	"buffers":[
		{
			"byteLength":363232,
			"uri":"chicken.bin"
		}
	]
}
