<?xml version="1.0" encoding="utf-8"?>
<!-- Generator: Adobe Illustrator 26.5.0, SVG Export Plug-In . SVG Version: 6.00 Build 0)  -->
<svg version="1.1" id="Layer_1" focusable="false" xmlns="http://www.w3.org/2000/svg" xmlns:xlink="http://www.w3.org/1999/xlink"
	 x="0px" y="0px" viewBox="0 0 12 10.4" style="enable-background:new 0 0 12 10.4;" xml:space="preserve">
<style type="text/css">
	.st0{fill:#231F20;}
</style>
<path class="st0" d="M12,10.3l-1.5-1.7c-0.2,0.1-0.3,0.2-0.4,0.4L7.9,7.7V6.1c0-0.1-0.1-0.2-0.2-0.3L6.2,5.2V2.4
	c0.2,0,0.4-0.1,0.5-0.2L6,0L5.3,2.2c0.2,0.1,0.3,0.1,0.5,0.2v2.8L4.3,5.8C4.2,5.9,4.1,6,4.1,6.2v1.6L1.9,9C1.8,8.9,1.7,8.8,1.5,8.7
	L0,10.4l2.3-0.5c0-0.2,0-0.4-0.1-0.5l1.9-1.1c0,0.1,0.1,0.2,0.2,0.2L5.8,9C5.9,9,5.9,9,6,9s0.1,0,0.2,0l1.5-0.6c0,0,0.1-0.1,0.1-0.1
	l2,1.2c0,0.1-0.1,0.3-0.1,0.4L12,10.3z M6,6.6L4.7,6.2l1.1-0.4v0.4h0.4V5.8l1.1,0.4L6,6.6z M6.2,8.5V7.1l1.2-0.5v0.8L7.2,7.3L7,7.8
	L7.4,8L6.2,8.5z"/>
</svg>
