<?xml version="1.0" encoding="utf-8"?>
<!-- Generator: Adobe Illustrator 26.5.0, SVG Export Plug-In . SVG Version: 6.00 Build 0)  -->
<svg version="1.1" id="Layer_1" xmlns="http://www.w3.org/2000/svg" xmlns:xlink="http://www.w3.org/1999/xlink" x="0px" y="0px"
	 viewBox="0 0 480 480" style="enable-background:new 0 0 480 480;" xml:space="preserve">
<path d="M240,0C107.5,0,0,107.5,0,240s107.5,240,240,240s240-107.5,240-240S372.5,0,240,0z M240.5,194.5c17.7,0,32,14.3,32,32
	s-14.3,32-32,32c-17.7,0-32-14.3-32-32S222.8,194.5,240.5,194.5z M89.6,207.9c4.9-40,25.7-75.1,55.6-99.3c7.6-6.1,18.9-4.5,24,3.8
	l41.7,66.7c-15.8,9.9-26.4,27.4-26.4,47.4h-79C95.7,226.5,88.4,217.7,89.6,207.9z M304.6,363.9c-19.5,9.3-41.1,14.6-64.1,14.6
	c-22.9,0-44.6-5.3-64.1-14.6c-8.9-4.2-12.5-15-7.3-23.3l41.7-66.8c8.6,5.4,18.7,8.7,29.6,8.7c10.9,0,21-3.3,29.6-8.7l41.8,66.8
	C317.1,348.9,313.5,359.7,304.6,363.9z M375.5,226.5h-79c0-20-10.6-37.4-26.4-47.3l41.7-66.7c5.2-8.3,16.4-9.9,24-3.8
	c29.9,24.2,50.6,59.2,55.5,99.2C392.6,217.7,385.3,226.5,375.5,226.5z"/>
</svg>
