<?xml version="1.0" encoding="utf-8"?>
<!-- Generator: Adobe Illustrator 26.5.0, SVG Export Plug-In . SVG Version: 6.00 Build 0)  -->
<svg version="1.1" id="Layer_1" xmlns="http://www.w3.org/2000/svg" xmlns:xlink="http://www.w3.org/1999/xlink" x="0px" y="0px"
	 viewBox="0 0 479.9 480" style="enable-background:new 0 0 479.9 480;" xml:space="preserve">
<path d="M240,0C107.5,0,0,107.5,0,240s107.5,240,240,240s240-107.5,240-240S372.5,0,240,0z M355.8,195.8l-128,128
	c-5.5,5.5-12.7,8.2-19.8,8.2s-14.3-2.7-19.8-8.2l-64-64c-10.9-10.9-10.9-28.7,0-39.6c10.9-10.9,28.7-10.9,39.6,0l44.2,44.2
	l108.2-108.2c10.9-10.9,28.7-10.9,39.6,0C366.7,167.1,366.7,184.9,355.8,195.8z"/>
</svg>
