<?xml version="1.0" encoding="utf-8"?>
<!-- Generator: Adobe Illustrator 26.5.0, SVG Export Plug-In . SVG Version: 6.00 Build 0)  -->
<svg version="1.1" id="Layer_1" xmlns="http://www.w3.org/2000/svg" xmlns:xlink="http://www.w3.org/1999/xlink" x="0px" y="0px"
	 viewBox="0 0 480 480" style="enable-background:new 0 0 480 480;" xml:space="preserve">
<path d="M240,0C107.5,0,0,107.5,0,240s107.5,240,240,240s240-107.5,240-240S372.5,0,240,0z M363.5,264.2L252.9,378.5
	c-7.1,7.4-18.6,7.4-25.9,0L116.5,264.2c-32.1-33.1-30.2-88.1,5.8-118.8c31.2-26.8,77.9-21.9,106.5,7.8l11.4,11.5l11.2-11.5
	c28.8-29.6,75.4-34.5,106.6-7.8C393.8,176.1,395.8,231.1,363.5,264.2z"/>
</svg>
