<?xml version="1.0" encoding="utf-8"?>
<!-- Generator: Adobe Illustrator 26.5.0, SVG Export Plug-In . SVG Version: 6.00 Build 0)  -->
<svg version="1.1" id="Layer_1" xmlns="http://www.w3.org/2000/svg" xmlns:xlink="http://www.w3.org/1999/xlink" x="0px" y="0px"
	 viewBox="0 0 480 479.9" style="enable-background:new 0 0 480 479.9;" xml:space="preserve">
<path d="M240-0.1C107.5-0.1,0,107.3,0,239.9s107.5,240,240,240s240-107.5,240-240S372.5-0.1,240-0.1z M346.3,328.4
	c8.6,10.1,7.3,25.3-2.8,33.8c-4.5,3.8-10,5.7-15.5,5.7c-6.8,0-13.6-2.9-18.3-8.5L240,277l-69.7,82.3c-4.8,5.6-11.5,8.5-18.3,8.5
	c-5.5,0-11-1.9-15.5-5.7c-10.1-8.6-11.4-23.7-2.8-33.8l74.9-88.5l-74.9-88.5c-8.6-10.1-7.3-25.3,2.8-33.8
	c10.1-8.5,25.3-7.3,33.8,2.8l69.7,82.3l69.7-82.3c8.5-10.1,23.7-11.4,33.8-2.8c10.1,8.6,11.4,23.7,2.8,33.8l-74.9,88.5L346.3,328.4z
	"/>
</svg>
