<?xml version="1.0" encoding="utf-8"?>
<!-- Generator: Adobe Illustrator 26.5.0, SVG Export Plug-In . SVG Version: 6.00 Build 0)  -->
<svg version="1.1" id="Layer_1" xmlns="http://www.w3.org/2000/svg" xmlns:xlink="http://www.w3.org/1999/xlink" x="0px" y="0px"
	 viewBox="0 0 480 479.8" style="enable-background:new 0 0 480 479.8;" xml:space="preserve">
<path d="M240-0.2C107.4-0.2,0,107.3,0,239.8c0,132.6,107.4,240,240,240s240-107.4,240-240C480,107.3,372.6-0.2,240-0.2z M240,111.8
	c17.7,0,32,14.3,32,32c0,17.7-14.3,32-32,32s-32-14.3-32-32C208,126.1,222.3,111.8,240,111.8z M280,367.8h-80c-13.2,0-24-10.8-24-24
	s10.8-24,24-24h16v-64h-8c-13.2,0-24-10.8-24-24s10.8-24,24-24h32c13.2,0,24,10.8,24,24v88h16c13.2,0,24,10.8,24,24
	S293.2,367.8,280,367.8z"/>
</svg>
