<?xml version="1.0" encoding="utf-8"?>
<!-- Generator: Adobe Illustrator 26.5.0, SVG Export Plug-In . SVG Version: 6.00 Build 0)  -->
<svg version="1.1" id="Layer_1" xmlns="http://www.w3.org/2000/svg" xmlns:xlink="http://www.w3.org/1999/xlink" x="0px" y="0px"
	 viewBox="0 0 512 448" style="enable-background:new 0 0 512 448;" xml:space="preserve">
<path d="M498,242c9.3-9.4,14-21.7,14-34s-4.7-24.6-14-34L338,14c-9.4-9.3-21.7-14-34-14s-24.6,4.7-34,14L14,270
	c-9.3,9.4-14,21.7-14,34s4.7,24.6,14,34l96,96c9,9,21.1,14,33.8,14H500c6.6,0,12-5.4,12-12l0,0c0-28.7-23.3-52-52-52H355.9L498,242z
	 M195.4,179.4l137.3,137.3L265.4,384H150.6l-80-80L195.4,179.4z"/>
</svg>
