<?xml version="1.0" encoding="utf-8"?>
<!-- Generator: Adobe Illustrator 26.5.0, SVG Export Plug-In . SVG Version: 6.00 Build 0)  -->
<svg version="1.1" id="Layer_1" xmlns="http://www.w3.org/2000/svg" xmlns:xlink="http://www.w3.org/1999/xlink" x="0px" y="0px"
	 viewBox="0 0 320 320" style="enable-background:new 0 0 320 320;" xml:space="preserve">
<path d="M245.9,216.2c8.2,8.2,8.2,21.5,0,29.7c-8.2,8.2-21.5,8.2-29.7,0L168,197.7l-48.1,48.1c-8.2,8.2-21.5,8.2-29.7,0
	c-8.2-8.2-8.2-21.5,0-29.7l48.1-48.1l-48.1-48.1c-8.2-8.2-8.2-21.5,0-29.7s21.5-8.2,29.7,0l48.1,48.1l48.1-48.1
	c8.2-8.2,21.5-8.2,29.7,0s8.2,21.5,0,29.7L197.7,168L245.9,216.2z"/>
</svg>
