<?xml version="1.0" encoding="utf-8"?>
<!-- Generator: Adobe Illustrator 26.5.0, SVG Export Plug-In . SVG Version: 6.00 Build 0)  -->
<svg version="1.1" id="Layer_1" xmlns="http://www.w3.org/2000/svg" xmlns:xlink="http://www.w3.org/1999/xlink" x="0px" y="0px"
	 viewBox="0 0 512 448" style="enable-background:new 0 0 512 448;" xml:space="preserve">
<path d="M448,0H64C28.7,0,0,28.7,0,64v320c0,35.3,28.7,64,64,64h384c35.3,0,64-28.7,64-64V64C512,28.7,483.3,0,448,0z M120,336
	c-6.5,0-13-2.6-17.7-7.8c-9-9.8-8.3-25,1.5-33.9l76.7-70.3l-76.7-70.3c-9.8-8.9-10.4-24.1-1.5-33.9s24.1-10.4,33.9-1.5l96,88
	c5,4.5,7.8,11,7.8,17.7s-2.8,13.2-7.8,17.7l-96,88C131.6,333.9,125.8,336,120,336z M392,352H248c-13.2,0-24-10.8-24-24
	s10.8-24,24-24h144c13.2,0,24,10.8,24,24S405.2,352,392,352z"/>
</svg>
