<?xml version="1.0" encoding="utf-8"?>
<!-- Generator: Adobe Illustrator 26.5.0, SVG Export Plug-In . SVG Version: 6.00 Build 0)  -->
<svg version="1.1" id="Layer_1" xmlns="http://www.w3.org/2000/svg" xmlns:xlink="http://www.w3.org/1999/xlink" x="0px" y="0px"
	 viewBox="0 0 512 512" style="enable-background:new 0 0 512 512;" xml:space="preserve">
<path d="M384,96V0H272c-26.5,0-48,21.5-48,48v288c0,26.5,21.5,48,48,48h192c26.5,0,48-21.5,48-48V128h-96
	C398.4,128,384,113.6,384,96z M416,0v96h96L416,0z M192,352V128H48c-26.5,0-48,21.5-48,48v288c0,26.5,21.5,48,48,48h192
	c26.5,0,48-21.5,48-48v-48h-32C220.7,416,192,387.3,192,352z"/>
</svg>
