<?xml version="1.0" encoding="utf-8"?>
<!-- Generator: Adobe Illustrator 26.5.0, SVG Export Plug-In . SVG Version: 6.00 Build 0)  -->
<svg version="1.1" id="Layer_1" xmlns="http://www.w3.org/2000/svg" xmlns:xlink="http://www.w3.org/1999/xlink" x="0px" y="0px"
	 viewBox="0 0 448 512" style="enable-background:new 0 0 448 512;" xml:space="preserve">
<path d="M53.2,467c1.6,24.8,23,45,47.9,45h245.8c24.9,0,46.3-20.2,47.9-45L416,128H32L53.2,467z M432,32H320L308.4,8.8
	c-2.7-5.4-8.2-8.8-14.3-8.8H153.9c-6.1,0-11.6,3.4-14.3,8.8L128,32H16C7.2,32,0,39.2,0,48v32c0,8.8,7.2,16,16,16h416
	c8.8,0,16-7.2,16-16V48C448,39.2,440.8,32,432,32z"/>
</svg>
