<?xml version="1.0" encoding="utf-8"?>
<!-- Generator: Adobe Illustrator 26.5.0, SVG Export Plug-In . SVG Version: 6.00 Build 0)  -->
<svg version="1.1" id="Layer_1" xmlns="http://www.w3.org/2000/svg" xmlns:xlink="http://www.w3.org/1999/xlink" x="0px" y="0px"
	 viewBox="0 0 384 512" style="enable-background:new 0 0 384 512;" xml:space="preserve">
<style type="text/css">
	.st0{fill:#FFFFFF;stroke:#000000;stroke-miterlimit:10;}
</style>
<path class="st0" d="M259-290"/>
<g>
	<polygon points="256,0 256,128 384,128 	"/>
	<path d="M227.7,368.3v17.6c0,7.3,5.9,13.2,13.2,13.2c7.3,0,13.2-5.9,13.2-13.2v-17.6c0-7.3-5.9-13.2-13.2-13.2
		S227.7,361,227.7,368.3z"/>
	<path d="M224,128V0H48C21.5,0,0,21.5,0,48v416c0,26.5,21.5,48,48,48h288c26.5,0,48-21.5,48-48V160H256C238.3,160,224,145.7,224,128
		z M189.7,420.4c-1.3,0.5-2.5,0.7-3.8,0.7c-4.5,0-8.7-2.8-10.3-7.2l-7.1-19.2h-40l-7.1,19.2c-2.1,5.7-8.4,8.6-14.1,6.5
		c-5.7-2.1-8.6-8.4-6.5-14.1l37.4-101.2c1.6-4.3,5.7-7.2,10.3-7.2c4.6,0,8.7,2.9,10.3,7.2l37.4,101.2
		C198.3,412,195.4,418.3,189.7,420.4z M265.1,333.1c6.1,0,11,4.9,11,11v66c0,6.1-4.9,11-11,11c-3.4,0-6.3-1.6-8.3-4
		c-4.8,2.5-10.2,4-15.9,4c-19.4,0-35.2-15.8-35.2-35.2v-17.6c0-19.4,15.8-35.2,35.2-35.2c5.8,0,11.1,1.5,15.9,4
		C258.8,334.7,261.7,333.1,265.1,333.1z"/>
	<polygon points="136.6,372.7 160.3,372.7 148.5,340.6 	"/>
</g>
</svg>
