<?xml version="1.0" encoding="utf-8"?>
<!-- Generator: Adobe Illustrator 26.5.0, SVG Export Plug-In . SVG Version: 6.00 Build 0)  -->
<svg version="1.1" id="Layer_1" xmlns="http://www.w3.org/2000/svg" xmlns:xlink="http://www.w3.org/1999/xlink" x="0px" y="0px"
	 viewBox="0 0 384 512" style="enable-background:new 0 0 384 512;" xml:space="preserve">
<path d="M224,128V0H48C21.5,0,0,21.5,0,48v416c0,26.5,21.5,48,48,48h288c26.5,0,48-21.5,48-48V160H256C238.3,160,224,145.7,224,128z
	 M281.5,211.1c4.1,3,6.5,7.8,6.5,12.9v160c0,17.6-21.5,32-48,32s-48-14.4-48-32s21.5-32,48-32c5.4,0,10.8,0.8,16,2v-76.4l-96,37.5
	V416c0,17.6-21.5,32-48,32s-48-14.4-48-32s21.5-32,48-32c5.4,0,10.8,0.8,16,2V271.2c0-7,4.5-13.1,11.2-15.2l128-47.2
	C272,207.2,277.4,208.1,281.5,211.1z M256,0v128h128L256,0z"/>
</svg>
