<?xml version="1.0" encoding="utf-8"?>
<!-- Generator: Adobe Illustrator 26.5.0, SVG Export Plug-In . SVG Version: 6.00 Build 0)  -->
<svg version="1.1" id="Layer_1" xmlns="http://www.w3.org/2000/svg" xmlns:xlink="http://www.w3.org/1999/xlink" x="0px" y="0px"
	 viewBox="0 0 384 512" style="enable-background:new 0 0 384 512;" xml:space="preserve">
<style type="text/css">
	.st0{fill:#FFFFFF;stroke:#000000;stroke-miterlimit:10;}
</style>
<path class="st0" d="M259-290"/>
<g>
	<circle cx="192" cy="359.6" r="32.9"/>
	<polygon points="256,0 256,128 384,128 	"/>
	<path d="M224,128V0H48C21.5,0,0,21.5,0,48v416c0,26.5,21.5,48,48,48h288c26.5,0,48-21.5,48-48V160H256C238.3,160,224,145.7,224,128
		z M266,287.6c9,0,26.3,35,26.3,40.8c0,2.3-1.3,4.6-3.4,5.8l-19.2,11.1c0.9,4.7,1.4,9.5,1.4,14.4c0,4.9-0.5,9.7-1.4,14.4l19.2,11.1
		c2.1,1.2,3.4,3.5,3.4,5.8c0,7-18.2,40.8-26.3,40.8c-1.2,0-2.3-0.3-3.4-0.9l-19.2-11.1c-7.3,6.2-15.7,11.1-25,14.4v22.2
		c0,3.1-2.1,5.9-5.2,6.5c-6.8,1.4-13.9,2.2-21.2,2.2s-14.3-0.8-21.2-2.2c-3-0.6-5.2-3.4-5.2-6.5v-22.2c-9.2-3.3-17.7-8.2-25-14.4
		l-19.2,11.1c-1.1,0.6-2.2,0.9-3.4,0.9c-9,0-26.3-35-26.3-40.8c0-2.3,1.3-4.6,3.4-5.8l19.2-11.1c-0.9-4.7-1.4-9.5-1.4-14.4
		c0-4.9,0.5-9.7,1.4-14.4l-19.2-11.1c-2.1-1.2-3.4-3.5-3.4-5.8c0-7,18.2-40.8,26.3-40.8c1.2,0,2.3,0.3,3.4,0.9l19.2,11.1
		c7.3-6.2,15.7-11.1,25-14.4V263c0-3.1,2.1-5.9,5.2-6.5c6.8-1.4,13.9-2.2,21.2-2.2s14.3,0.8,21.2,2.2c3,0.6,5.2,3.4,5.2,6.5v22.2
		c9.2,3.3,17.7,8.2,25,14.4l19.2-11.1C263.6,287.9,264.8,287.6,266,287.6z"/>
</g>
</svg>
