<?xml version="1.0" encoding="utf-8"?>
<!-- Generator: Adobe Illustrator 26.5.0, SVG Export Plug-In . SVG Version: 6.00 Build 0)  -->
<svg version="1.1" id="Layer_1" xmlns="http://www.w3.org/2000/svg" xmlns:xlink="http://www.w3.org/1999/xlink" x="0px" y="0px"
	 viewBox="0 0 384 512" style="enable-background:new 0 0 384 512;" xml:space="preserve">
<style type="text/css">
	.st0{fill:#FFFFFF;stroke:#000000;stroke-miterlimit:10;}
</style>
<path class="st0" d="M259-290"/>
<g>
	<polygon points="256,0 256,128 384,128 	"/>
	<polygon points="207.3,422.5 284.1,393.2 284.1,302.8 207.3,331.5 	"/>
	<path d="M224,128V0H48C21.5,0,0,21.5,0,48v416c0,26.5,21.5,48,48,48h288c26.5,0,48-21.5,48-48V160H256C238.3,160,224,145.7,224,128
		z M314.8,274.1v124.4c0,9.5-5.9,18.1-14.8,21.5L202.8,457c-3.5,1.3-7.1,2-10.8,2s-7.3-0.7-10.8-2l-97.2-37.1
		c-8.9-3.4-14.8-12-14.8-21.5V274.1c0-9.5,5.9-18.1,14.8-21.5l97.2-37.1c3.5-1.3,7.1-2,10.8-2s7.3,0.7,10.8,2l97.2,37.1
		C308.9,256,314.8,264.5,314.8,274.1z"/>
	<polygon points="112.3,274.6 192,304.5 271.7,274.6 192,244.2 	"/>
</g>
</svg>
