<?xml version="1.0" encoding="utf-8"?>
<!-- Generator: Adobe Illustrator 26.5.0, SVG Export Plug-In . SVG Version: 6.00 Build 0)  -->
<svg version="1.1" id="Layer_1" xmlns="http://www.w3.org/2000/svg" xmlns:xlink="http://www.w3.org/1999/xlink" x="0px" y="0px"
	 viewBox="0 0 384 512" style="enable-background:new 0 0 384 512;" xml:space="preserve">
<style type="text/css">
	.st0{fill:#FFFFFF;stroke:#000000;stroke-miterlimit:10;}
</style>
<path class="st0" d="M259-290"/>
<g>
	<path d="M224,128V0H48C21.5,0,0,21.5,0,48v416c0,26.5,21.5,48,48,48h288c26.5,0,48-21.5,48-48V160H256C238.3,160,224,145.7,224,128
		z M148.1,271.6c0-24.2,19.6-43.9,43.9-43.9s43.9,19.6,43.9,43.9v73.1c0,24.2-19.6,43.9-43.9,43.9s-43.9-19.6-43.9-43.9V271.6z
		 M272.4,326.5v18.3c0,40.6-30.3,74.2-69.4,79.6v15.4h18.3c8.3,0,15,6.9,14.6,15.3c-0.2,3.8-3.5,6.6-7.3,6.6h-73.1
		c-3.8,0-7.1-2.8-7.3-6.6c-0.4-8.4,6.3-15.3,14.6-15.3H181v-15.6c-40.2-5.5-69.4-42-69.4-83v-14.7c0-6.1,4.9-11,11-11
		c6.1,0,11,4.9,11,11v16c0,30.2,24.5,58.8,54.7,60.7c33.9,2.1,62.2-24.9,62.2-58.4v-18.3c0-6.1,4.9-11,11-11
		C267.5,315.5,272.4,320.4,272.4,326.5z"/>
	<polygon points="256,0 256,128 384,128 	"/>
</g>
</svg>
