<?xml version="1.0" encoding="utf-8"?>
<!-- Generator: Adobe Illustrator 26.5.0, SVG Export Plug-In . SVG Version: 6.00 Build 0)  -->
<svg version="1.1" id="Layer_1" xmlns="http://www.w3.org/2000/svg" xmlns:xlink="http://www.w3.org/1999/xlink" x="0px" y="0px"
	 viewBox="0 0 384 512" style="enable-background:new 0 0 384 512;" xml:space="preserve">
<path d="M224,128V0H48C21.5,0,0,21.5,0,48v416c0,26.5,21.5,48,48,48h288c26.5,0,48-21.5,48-48V160H256C238.3,160,224,145.7,224,128z
	 M96,224c17.7,0,32,14.3,32,32s-14.3,32-32,32s-32-14.3-32-32S78.3,224,96,224z M318.1,439.5c-2.8,5.2-8.2,8.5-14.1,8.5H80
	c-5.9,0-11.3-3.2-14.1-8.5c-2.8-5.2-2.5-11.5,0.8-16.4l53.3-80c3-4.5,8-7.1,13.3-7.1c5.3,0,10.3,2.7,13.3,7.1l13.4,20l45.4-68
	c3-4.5,8-7.1,13.3-7.1s10.3,2.7,13.3,7.1l85.3,128C320.6,428,320.9,434.3,318.1,439.5z M256,0v128h128L256,0z"/>
</svg>
