<?xml version="1.0" encoding="utf-8"?>
<!-- Generator: Adobe Illustrator 26.5.0, SVG Export Plug-In . SVG Version: 6.00 Build 0)  -->
<svg version="1.1" id="Layer_1" xmlns="http://www.w3.org/2000/svg" xmlns:xlink="http://www.w3.org/1999/xlink" x="0px" y="0px"
	 viewBox="0 0 384 512" style="enable-background:new 0 0 384 512;" xml:space="preserve">
<path d="M224,128V0H48C21.5,0,0,21.5,0,48v416c0,26.5,21.5,48,48,48h288c26.5,0,48-21.5,48-48V160H256C238.3,160,224,145.7,224,128z
	 M176,404c0,10.8-12.9,16-20.5,8.5L120,376H76c-6.6,0-12-5.4-12-12v-56c0-6.6,5.4-12,12-12h44l35.5-36.5c7.6-7.6,20.5-2.2,20.5,8.5
	V404z M224,387.8c-4.4,0-8.8-1.8-11.9-5.3c-5.9-6.6-5.4-16.7,1.2-22.6c6.9-6.2,10.7-14.7,10.7-23.9s-3.8-17.7-10.7-23.9
	c-6.6-5.9-7.1-16-1.2-22.6c5.9-6.6,16-7.1,22.6-1.2c13.5,12.2,21.3,29.5,21.3,47.7s-7.8,35.5-21.3,47.7
	C231.6,386.4,227.8,387.8,224,387.8z M320,336c0,41.8-20.5,81.1-54.8,105.1c-2.8,1.9-6,2.9-9.1,2.9c-5,0-10-2.4-13.1-6.8
	c-5-7.2-3.3-17.2,4-22.3c25.8-18,41.2-47.4,41.2-78.8s-15.4-60.8-41.1-78.8c-7.2-5.1-9-15-4-22.3c5-7.3,15-9.1,22.3-4
	C299.5,254.9,320,294.2,320,336z M256,0v128h128L256,0z"/>
</svg>
