<?xml version="1.0" encoding="utf-8"?>
<!-- Generator: Adobe Illustrator 26.5.0, SVG Export Plug-In . SVG Version: 6.00 Build 0)  -->
<svg version="1.1" id="Layer_1" xmlns="http://www.w3.org/2000/svg" xmlns:xlink="http://www.w3.org/1999/xlink" x="0px" y="0px"
	 viewBox="0 0 384 512" style="enable-background:new 0 0 384 512;" xml:space="preserve">
<style type="text/css">
	.st0{fill:#FFFFFF;stroke:#000000;stroke-miterlimit:10;}
</style>
<path class="st0" d="M259-290"/>
<g>
	<rect x="122" y="283.6" width="38.7" height="38.7"/>
	<rect x="172.8" y="384.9" width="38.5" height="38.7"/>
	<rect x="122" y="334.4" width="38.7" height="38.5"/>
	<rect x="122" y="384.9" width="38.7" height="38.7"/>
	<rect x="172.8" y="334.4" width="38.5" height="38.5"/>
	<polygon points="256,0 256,128 384,128 	"/>
	<path d="M224,128V0H48C21.5,0,0,21.5,0,48v416c0,26.5,21.5,48,48,48h288c26.5,0,48-21.5,48-48V160H256C238.3,160,224,145.7,224,128
		z M262,242.8c0-3.4,2.6-6,6-6s6,2.6,6,6v28.9h28.9c3.4,0,6,2.6,6,6c0,3.4-2.6,6-6,6H274v38.7h28.9c3.4,0,6,2.6,6,6s-2.6,6-6,6H274
		v38.5h28.9c3.4,0,6,2.6,6,6c0,3.4-2.6,6-6,6H274v38.7h28.9c3.4,0,6,2.6,6,6s-2.6,6-6,6H274v28.9c0,3.4-2.6,6-6,6s-6-2.6-6-6v-28.9
		h-38.7v28.9c0,3.4-2.6,6-6,6s-6-2.6-6-6v-28.9h-38.5v28.9c0,3.4-2.6,6-6,6s-6-2.6-6-6v-28.9H122v28.9c0,3.4-2.6,6-6,6
		c-3.4,0-6-2.6-6-6v-28.9H81.2c-3.4,0-6-2.6-6-6s2.6-6,6-6H110v-38.7H81.2c-3.4,0-6-2.6-6-6c0-3.4,2.6-6,6-6H110v-38.5H81.2
		c-3.4,0-6-2.6-6-6s2.6-6,6-6H110v-38.7H81.2c-3.4,0-6-2.6-6-6c0-3.4,2.6-6,6-6H110v-28.9c0-3.4,2.6-6,6-6c3.4,0,6,2.6,6,6v28.9
		h38.7v-28.9c0-3.4,2.6-6,6-6s6,2.6,6,6v28.9h38.5v-28.9c0-3.4,2.6-6,6-6s6,2.6,6,6v28.9H262V242.8z"/>
	<rect x="223.3" y="334.4" width="38.7" height="38.5"/>
	<rect x="172.8" y="283.6" width="38.5" height="38.7"/>
	<rect x="223.3" y="283.6" width="38.7" height="38.7"/>
	<rect x="223.3" y="384.9" width="38.7" height="38.7"/>
</g>
</svg>
