<?xml version="1.0" encoding="utf-8"?>
<!-- Generator: Adobe Illustrator 26.5.0, SVG Export Plug-In . SVG Version: 6.00 Build 0)  -->
<svg version="1.1" id="Layer_1" xmlns="http://www.w3.org/2000/svg" xmlns:xlink="http://www.w3.org/1999/xlink" x="0px" y="0px"
	 viewBox="0 0 384 512" style="enable-background:new 0 0 384 512;" xml:space="preserve">
<style type="text/css">
	.st0{fill:#FFFFFF;stroke:#000000;stroke-miterlimit:10;}
</style>
<path class="st0" d="M259-290"/>
<g>
	<polygon points="256,1.5 256,128.8 384,128.8 	"/>
	<path d="M224,128.8V1.5H48C21.5,1.5,0,22.9,0,49.2v413.6c0,26.3,21.5,47.7,48,47.7h288c26.5,0,48-21.4,48-47.7V160.6H256
		C238.3,160.6,224,146.3,224,128.8z M287.6,312.4c-5.8,0.6-11.7,0.6-16.9,1.9c-18.9,4.1-32.2,15.2-41.6,32
		c-6.4,11.3-10.8,22.9-11.1,35.9c-0.3,24.8,13.9,45.3,35.8,49.4c19.4,3.6,35.3-3.6,47.8-17.9c12.8-14.6,18.3-31.7,15-50.8
		c-5.6-31.7-39.7-43.6-64.1-22.6c-16.1,13.8-22.5,31.5-17.2,52.2c6.1,23.7,32.8,32,51.6,16.3c12.8-10.5,18.3-24.3,15.3-40.8
		c-3.6-19-25.5-27-40.8-15.2c-11.1,8.6-15.5,24.3-10.3,35.9c4.7,10.2,16.1,14.4,25.8,9.4c9.4-4.7,14.2-17.7,9.7-26.8
		c-2.8-5.5-7.2-7.5-13.6-7.2c0,2.8,0,5,0,7.5c0.6-0.3,1.1-0.6,1.7-0.8c1.9,3.3,5.3,6.6,5.8,10.2c0.6,4.7-2.5,9.1-7.8,10.2
		c-5.6,1.4-10.3-0.3-13.6-5c-5.6-8-2.5-20.7,6.7-27c8.1-5.8,20-3.6,25.5,4.7c6.1,8.8,5.6,21.8-1.7,32c-6.7,9.7-18.3,14.6-28.3,12.1
		c-11.4-2.8-18.3-11.3-20-24c-1.9-16.3,6.7-33.1,21.1-40.8c21.1-11.6,44.4,1.7,47.5,27.3c2.8,22.1-14.4,47.2-35.8,53
		c-19.2,5-37.5-3.9-45-22.1c-13.9-33.4,12.2-76.2,48.3-79.2c22.5-1.9,43.3,16.3,46.1,40.6c4.7,39.2-20.3,71.5-61.4,79.2
		c-27.5,5.2-55,10.5-82.5,15.5c-2.5,0.6-6.1,0-8.1-1.4c-36.4-26.8-72.5-53.8-108.8-80.6c-0.8-0.6-1.9-1.1-2.8-1.7
		c0-0.8,0.3-1.4,0.6-1.9c23.9-3.3,48-6.6,71.9-9.9c0.3-0.6,0.3-1.1,0.6-1.9c-5-3-10-6.3-15-9.1c-19.2-10.5-27.2-26.8-24.2-48
		c3.1-21,14.7-36.2,35-43.9c10-3.9,20.8-3.9,30.8,0.3c42.2,17.4,84.4,34.8,126.6,52.2C286.5,311.6,286.8,311.9,287.6,312.4z"/>
</g>
</svg>
