<?xml version="1.0" encoding="utf-8"?>
<!-- Generator: Adobe Illustrator 26.5.0, SVG Export Plug-In . SVG Version: 6.00 Build 0)  -->
<svg version="1.1" id="Layer_1" xmlns="http://www.w3.org/2000/svg" xmlns:xlink="http://www.w3.org/1999/xlink" x="0px" y="0px"
	 viewBox="0 0 684.2 478" style="enable-background:new 0 0 684.2 478;" xml:space="preserve">
<path d="M147.8,190H480v-48c0-26.5-21.5-48-48-48H272l-64-64H48C21.5,30,0,51.5,0,78v328.4l90.5-181.1
	C101.4,203.6,123.4,190,147.8,190z M544,222H147.8c-12.1,0-23.2,6.8-28.6,17.7L0,478h448c12.1,0,23.2-6.9,28.6-17.7l96-192
	C583.2,247,567.7,222,544,222z"/>
<path d="M679.6,76.7c-6.4,6.9-17.2,7.2-24.1,0.8l-22.4-21v144.8c0,9.4-7.6,17.1-17.1,17.1h-119c-9.4,0-17.1-7.6-17.1-17.1
	s7.6-17.1,17.1-17.1H599V56.4l-22.4,21c-6.9,6.4-17.7,6.1-24.1-0.8c-6.4-6.9-6.1-17.6,0.8-24.1l51.2-48C607.7,1.5,611.8,0,616,0
	c4.2,0,8.4,1.5,11.7,4.6l51.2,48C685.7,59,686.1,69.8,679.6,76.7z"/>
</svg>
