<?xml version="1.0" encoding="utf-8"?>
<!-- Generator: Adobe Illustrator 26.5.0, SVG Export Plug-In . SVG Version: 6.00 Build 0)  -->
<svg version="1.1" id="Layer_1" xmlns="http://www.w3.org/2000/svg" xmlns:xlink="http://www.w3.org/1999/xlink" x="0px" y="0px"
	 viewBox="0 0 512 512" style="enable-background:new 0 0 512 512;" xml:space="preserve">
<path d="M176,0H48C21.5,0,0,21.5,0,48v128c0,26.5,21.5,48,48,48h128c26.5,0,48-21.5,48-48V48C224,21.5,202.5,0,176,0z M464,288H336
	c-26.5,0-48,21.5-48,48v128c0,26.5,21.5,48,48,48h128c26.5,0,48-21.5,48-48V336C512,309.5,490.5,288,464,288z M464,0H336
	c-26.5,0-48,21.5-48,48v128c0,26.5,21.5,48,48,48h128c26.5,0,48-21.5,48-48V48C512,21.5,490.5,0,464,0z M176,288H48
	c-26.5,0-48,21.5-48,48v128c0,26.5,21.5,48,48,48h128c26.5,0,48-21.5,48-48V336C224,309.5,202.5,288,176,288z"/>
</svg>
