<?xml version="1.0" encoding="utf-8"?>
<!-- Generator: Adobe Illustrator 26.5.0, SVG Export Plug-In . SVG Version: 6.00 Build 0)  -->
<svg version="1.1" id="Layer_1" xmlns="http://www.w3.org/2000/svg" xmlns:xlink="http://www.w3.org/1999/xlink" x="0px" y="0px"
	 viewBox="0 0 352 512" style="enable-background:new 0 0 352 512;" xml:space="preserve">
<path d="M96.1,454.3c0,6.3,1.9,12.5,5.3,17.7l17.1,25.7c5.2,7.9,17.2,14.3,26.7,14.3h61.7c9.4,0,21.4-6.4,26.6-14.3l17.1-25.7
	c2.9-4.4,5.3-12.4,5.3-17.7L256,416H96L96.1,454.3z M175.4,0C73.4,0.3,0,83,0,176c0,44.4,16.4,84.8,43.6,115.8
	c16.5,18.8,42.3,58.2,52.2,91.4c0,0.2,0.1,0.5,0.1,0.8h160.2c0-0.3,0.1-0.5,0.1-0.8c9.9-33.2,35.7-72.6,52.2-91.4
	C335.6,260.8,352,220.4,352,176C352,78.6,272.9-0.3,175.4,0z M176,96c-44.1,0-80,35.9-80,80c0,8.8-7.2,16-16,16s-16-7.2-16-16
	c0-61.8,50.2-112,112-112c8.8,0,16,7.2,16,16S184.8,96,176,96z"/>
</svg>
