<?xml version="1.0" encoding="utf-8"?>
<!-- Generator: Adobe Illustrator 26.5.0, SVG Export Plug-In . SVG Version: 6.00 Build 0)  -->
<svg version="1.1" id="Layer_1" xmlns="http://www.w3.org/2000/svg" xmlns:xlink="http://www.w3.org/1999/xlink" x="0px" y="0px"
	 viewBox="0 0 640 512" style="enable-background:new 0 0 640 512;" xml:space="preserve">
<path d="M240,454.4c0.1,6.2,2,12.4,5.4,17.6l17.1,25.8c5.2,7.9,17.2,14.2,26.6,14.2h61.8c9.5,0,21.4-6.4,26.6-14.2l17.1-25.8
	c3.2-5.4,5.1-11.4,5.4-17.6V416H240V454.4z M319.5,0C217.5,0.2,144,83,144,176c0,42.6,15.4,83.8,43.5,115.8
	c16.6,18.9,42.4,58.2,52.2,91.5c0,0.2,0.1,0.5,0.1,0.8h160.2c0-0.2,0.1-0.5,0.1-0.8c9.9-33.2,35.6-72.6,52.2-91.5
	c28.1-32,43.5-73.1,43.5-115.8C496,78.6,416.9-0.2,319.5,0z M320,96c-44.1,0-80,35.9-80,80c0,8.9-7.1,16-16,16s-16-7.1-16-16
	c0.1-61.9,50.1-111.9,112-112c8.9,0,16,7.1,16,16S328.9,96,320,96z M112,192c0-13.2-10.8-24-24-24H24c-13.2,0-24,10.8-24,24
	s10.8,24,24,24h64C101.2,216,112,205.2,112,192z M616,168h-64c-13.2,0-24,10.8-24,24s10.8,24,24,24h64c13.2,0,24-10.8,24-24
	S629.2,168,616,168z M131.1,55.2l-55.5-32c-7.4-4.5-16.6-4.6-24.2-0.4c-7.5,4.4-12.1,12.4-12.1,21c0.1,8.8,4.9,16.8,12.4,20.9
	l55.5,32c7.4,4.5,16.6,4.6,24.2,0.4c7.5-4.4,12.1-12.4,12.1-21C143.4,67.4,138.6,59.4,131.1,55.2z M588.4,319.2l-55.5-32
	c-7.4-4.5-16.6-4.6-24.2-0.4c-7.5,4.4-12.1,12.4-12.1,21c0.1,8.8,4.9,16.8,12.4,20.9l55.5,32c11.4,6.4,25.9,2.4,32.4-9
	C603.2,340.5,599.5,326,588.4,319.2z M107.1,287.2l-55.5,32c-7.5,4.1-12.2,12.1-12.4,20.9c0,8.6,4.6,16.6,12.1,21
	c7.6,4.2,16.9,4.1,24.2-0.4l55.5-32c11.1-6.8,14.9-21.2,8.4-32.5C133,284.9,118.5,280.9,107.1,287.2z M521,100c4.1,0,8.2-1.1,12-3.2
	l55.4-32c11.2-6.8,14.9-21.2,8.4-32.5c-6.5-11.4-21-15.4-32.4-9l-55.4,32c-9.5,5.4-14,16.5-11.2,27C500.6,92.8,510.1,100,521,100z"
	/>
</svg>
