<?xml version="1.0" encoding="utf-8"?>
<!-- Generator: Adobe Illustrator 26.5.0, SVG Export Plug-In . SVG Version: 6.00 Build 0)  -->
<svg version="1.1" id="Capa_1" xmlns="http://www.w3.org/2000/svg" xmlns:xlink="http://www.w3.org/1999/xlink" x="0px" y="0px"
	 viewBox="0 0 512 393.1" style="enable-background:new 0 0 512 393.1;" xml:space="preserve">
<path d="M1.1,225.8c46.3-6.5,93.1-12.9,139.4-19.4c0.5-1.1,0.5-2.2,1.1-3.8c-9.7-5.9-19.4-12.4-29.1-17.8
	c-37.1-20.5-52.8-52.2-46.8-93.7c5.9-40.9,28.5-70.5,67.8-85.6c19.4-7.5,40.4-7.5,59.8,0.5C275.1,40,356.9,74,438.8,107.9
	c0.5,0.5,1.1,1.1,2.7,2.2c-11.3,1.1-22.6,1.1-32.8,3.8c-36.6,8.1-62.4,29.6-80.8,62.4c-12.4,22.1-21,44.7-21.5,70
	c-0.5,48.5,26.9,88.3,69.4,96.4c37.7,7,68.4-7,92.6-35c24.8-28.5,35.5-61.9,29.1-99.1c-10.8-61.9-77-85.1-124.4-44.1
	c-31.2,26.9-43.6,61.4-33.4,101.7c11.8,46.3,63.5,62.4,100.1,31.8c24.8-20.5,35.5-47.4,29.6-79.7c-7-37.1-49.5-52.8-79.1-29.6
	c-21.5,16.7-30.1,47.4-19.9,70c9.2,19.9,31.2,28,50.1,18.3c18.3-9.2,27.5-34.5,18.8-52.2c-5.4-10.8-14-14.5-26.4-14
	c0,5.4,0,9.7,0,14.5c1.1-0.5,2.2-1.1,3.2-1.6c3.8,6.5,10.2,12.9,11.3,19.9c1.1,9.2-4.8,17.8-15.1,19.9c-10.8,2.7-19.9-0.5-26.4-9.7
	c-10.8-15.6-4.8-40.4,12.9-52.8c15.6-11.3,38.8-7,49.5,9.2c11.8,17.2,10.8,42.5-3.2,62.4c-12.9,18.8-35.5,28.5-54.9,23.7
	c-22.1-5.4-35.5-22.1-38.8-46.8c-3.8-31.8,12.9-64.6,40.9-79.7c40.9-22.6,86.1,3.2,92.1,53.3c5.4,43.1-28,92.1-69.4,103.4
	c-37.1,9.7-72.7-7.5-87.2-43.1c-26.9-65.1,23.7-148.6,93.7-154.5c43.6-3.8,84,31.8,89.4,79.1c9.2,76.4-39.3,139.4-119,154.5
	C338.6,372.7,285.3,383,232,392.7c-4.8,1.1-11.8,0-15.6-2.7c-70.5-52.2-140.5-105-211-157.2c-1.6-1.1-3.8-2.2-5.4-3.2
	C0,227.9,0.5,226.8,1.1,225.8z"/>
</svg>
