<?xml version="1.0" encoding="utf-8"?>
<!-- Generator: Adobe Illustrator 26.5.0, SVG Export Plug-In . SVG Version: 6.00 Build 0)  -->
<svg version="1.1" id="Layer_1" xmlns="http://www.w3.org/2000/svg" xmlns:xlink="http://www.w3.org/1999/xlink" x="0px" y="0px"
	 viewBox="0 0 512 512" style="enable-background:new 0 0 512 512;" xml:space="preserve">
<path d="M320,96V80c0-26.5-21.5-48-48-48h-56.6C204.3,12.9,183.6,0,160,0s-44.3,12.9-55.4,32H48C21.5,32,0,53.5,0,80v320
	c0,26.5,21.5,48,48,48h144V176c0-44.2,35.8-80,80-80H320z M160,88c-13.2,0-24-10.8-24-24s10.8-24,24-24s24,10.8,24,24
	S173.2,88,160,88z M416,128v96h96L416,128z M384,224v-96H272c-26.5,0-48,21.5-48,48v288c0,26.5,21.5,48,48,48h192
	c26.5,0,48-21.5,48-48V256h-96C398.4,256,384,241.6,384,224z"/>
</svg>
