<?xml version="1.0" encoding="utf-8"?>
<!-- Generator: Adobe Illustrator 26.5.0, SVG Export Plug-In . SVG Version: 6.00 Build 0)  -->
<svg version="1.1" id="Layer_1" xmlns="http://www.w3.org/2000/svg" xmlns:xlink="http://www.w3.org/1999/xlink" x="0px" y="0px"
	 viewBox="0 0 480 480" style="enable-background:new 0 0 480 480;" xml:space="preserve">
<path d="M448,0c-17.7,0-32,14.3-32,32v45.3C371.1,28.8,307.8,0,240,0C136.9,0,45.5,65.6,12.6,163.2c-7.1,20.9,4.2,43.6,25.1,50.7
	c4.2,1.4,8.6,2.1,12.8,2.1c16.7,0,32.3-10.5,37.9-27.2C110.3,123.7,171.3,80,240,80c50.8,0,97.9,24.1,127.9,64h-18.6l0,0H320
	c-17.7,0-32,14.3-32,32c0,17.7,14.3,32,32,32h128c8.8,0,16.8-3.6,22.6-9.4s9.4-13.8,9.4-22.6V32C480,14.3,465.7,0,448,0z
	 M442.3,266.1c-21-7.1-43.6,4.2-50.7,25.1C369.7,356.3,308.7,400,240,400c-50.8,0-97.9-24.1-127.9-64h18.6l0,0H160
	c17.7,0,32-14.3,32-32c0-17.7-14.3-32-32-32H32c-8.8,0-16.8,3.6-22.6,9.4S0,295.2,0,304v144c0,17.7,14.3,32,32,32
	c17.7,0,32-14.3,32-32v-45.3c44.9,48.5,108.2,77.3,176,77.3c103.1,0,194.5-65.6,227.5-163.2C474.5,295.9,463.3,273.2,442.3,266.1z"
	/>
</svg>
