<?xml version="1.0" encoding="utf-8"?>
<!-- Generator: Adobe Illustrator 26.5.0, SVG Export Plug-In . SVG Version: 6.00 Build 0)  -->
<svg version="1.1" id="Layer_1" xmlns="http://www.w3.org/2000/svg" xmlns:xlink="http://www.w3.org/1999/xlink" x="0px" y="0px"
	 viewBox="0 0 448 448" style="enable-background:new 0 0 448 448;" xml:space="preserve">
<path d="M433.9,97.9l-83.9-83.9C342.3,6.3,327.1,0,316.1,0H64C28.7,0,0,28.7,0,64v320c0,35.3,28.7,64,64,64h320
	c35.3,0,64-28.7,64-64V131.9C448,120.9,441.7,105.7,433.9,97.9z M224,384c-35.3,0-64-28.7-64-64s28.7-64,64-64s64,28.7,64,64
	S259.3,384,224,384z M320,176c0,8.8-7.2,16-16,16H80c-8.8,0-16-7.2-16-16V80c0-8.8,7.2-16,16-16h224c8.8,0,16,7.2,16,16V176z"/>
</svg>
