<?xml version="1.0" encoding="utf-8"?>
<!-- Generator: Adobe Illustrator 26.5.0, SVG Export Plug-In . SVG Version: 6.00 Build 0)  -->
<svg version="1.1" id="Layer_1" xmlns="http://www.w3.org/2000/svg" xmlns:xlink="http://www.w3.org/1999/xlink" x="0px" y="0px"
	 viewBox="0 0 393.1 393.1" style="enable-background:new 0 0 393.1 393.1;" xml:space="preserve">
<path d="M393.1,68.7L393.1,68.7c0-5.7-4.4-10.1-10.1-10.1h-48.5V10.1C334.4,4.4,330,0,324.3,0l0,0c-5.7,0-10.1,4.4-10.1,10.1v48.5
	h-65.1V10.1C249.1,4.4,244.7,0,239,0l0,0c-5.7,0-10.1,4.4-10.1,10.1v48.5h-64.7V10.1c0-5.7-4.4-10.1-10.1-10.1l0,0
	C148.4,0,144,4.4,144,10.1v48.5H78.9V10.1C78.9,4.4,74.4,0,68.7,0l0,0c-5.7,0-10.1,4.4-10.1,10.1v48.5H10.1C4.4,58.6,0,63.1,0,68.7
	l0,0c0,5.7,4.4,10.1,10.1,10.1h48.5V144H10.1C4.4,144,0,148.4,0,154.1l0,0c0,5.7,4.4,10.1,10.1,10.1h48.5v64.7H10.1
	C4.4,228.9,0,233.3,0,239l0,0c0,5.7,4.4,10.1,10.1,10.1h48.5v65.1H10.1c-5.7,0-10.1,4.4-10.1,10.1l0,0c0,5.7,4.4,10.1,10.1,10.1
	h48.5V383c0,5.7,4.4,10.1,10.1,10.1l0,0c5.7,0,10.1-4.4,10.1-10.1v-48.5H144V383c0,5.7,4.4,10.1,10.1,10.1l0,0
	c5.7,0,10.1-4.4,10.1-10.1v-48.5h64.7V383c0,5.7,4.4,10.1,10.1,10.1l0,0c5.7,0,10.1-4.4,10.1-10.1v-48.5h65.1V383
	c0,5.7,4.4,10.1,10.1,10.1l0,0c5.7,0,10.1-4.4,10.1-10.1v-48.5H383c5.7,0,10.1-4.4,10.1-10.1l0,0c0-5.7-4.4-10.1-10.1-10.1h-48.5
	v-65.1H383c5.7,0,10.1-4.4,10.1-10.1l0,0c0-5.7-4.4-10.1-10.1-10.1h-48.5v-64.7H383c5.7,0,10.1-4.4,10.1-10.1l0,0
	c0-5.7-4.4-10.1-10.1-10.1h-48.5V78.9H383C388.6,78.9,393.1,74.4,393.1,68.7z M228.9,78.9V144h-64.7V78.9H228.9z M228.9,164.2v64.7
	h-64.7v-64.7H228.9z M78.9,78.9H144V144H78.9V78.9z M78.9,164.2H144v64.7H78.9V164.2z M78.9,314.2v-65.1H144v65.1H78.9z
	 M164.2,314.2v-65.1h64.7v65.1H164.2z M314.2,314.2h-65.1v-65.1h65.1V314.2z M314.2,228.9h-65.1v-64.7h65.1V228.9z M314.2,144h-65.1
	V78.9h65.1V144z"/>
</svg>
