<?xml version="1.0" encoding="utf-8"?>
<!-- Generator: Adobe Illustrator 26.5.0, SVG Export Plug-In . SVG Version: 6.00 Build 0)  -->
<svg version="1.1" id="Layer_1" xmlns="http://www.w3.org/2000/svg" xmlns:xlink="http://www.w3.org/1999/xlink" x="0px" y="0px"
	 viewBox="0 0 512 276" style="enable-background:new 0 0 512 276;" xml:space="preserve">
<path d="M400,212H112c-17.7,0-32,14.3-32,32c0,17.7,14.3,32,32,32h288c17.7,0,32-14.3,32-32C432,226.3,417.7,212,400,212z
	 M407.1,54.6l-128,128c-6.2,6.2-14.4,9.4-22.6,9.4c-8.2,0-16.4-3.1-22.6-9.4l-128-128c-9.2-9.2-11.9-22.9-6.9-34.9S115.5,0,128.4,0
	h256c12.9,0,24.6,7.8,29.6,19.8S416.2,45.5,407.1,54.6z"/>
</svg>
