<?xml version="1.0" encoding="utf-8"?>
<!-- Generator: Adobe Illustrator 26.5.0, SVG Export Plug-In . SVG Version: 6.00 Build 0)  -->
<svg version="1.1" id="Layer_1" xmlns="http://www.w3.org/2000/svg" xmlns:xlink="http://www.w3.org/1999/xlink" x="0px" y="0px"
	 viewBox="0 0 512 512" style="enable-background:new 0 0 512 512;" xml:space="preserve">
<path d="M505,448.4L380.6,324.1C403,290.9,416,251,416,208C416,93.1,322.9,0,208,0S0,93.1,0,208s93.1,208,208,208
	c43,0,82.9-13,116.1-35.4L448.4,505c9.4,9.4,24.6,9.4,33.9,0l22.6-22.6C514.3,473,514.3,457.8,505,448.4z M80,208
	c0-70.6,57.4-128,128-128s128,57.4,128,128c0,70.6-57.4,128-128,128S80,278.6,80,208z"/>
</svg>
