<?xml version="1.0" encoding="utf-8"?>
<!-- Generator: Adobe Illustrator 26.5.0, SVG Export Plug-In . SVG Version: 6.00 Build 0)  -->
<svg version="1.1" id="Layer_1" xmlns="http://www.w3.org/2000/svg" xmlns:xlink="http://www.w3.org/1999/xlink" x="0px" y="0px"
	 viewBox="0 0 487 512" style="enable-background:new 0 0 487 512;" xml:space="preserve">
<path d="M487,332c0-5.7-3.1-11.1-8.2-14.1L432.1,291c2.1-11.4,3.3-23,3.3-35s-1.2-23.6-3.3-35l46.6-26.9c5.1-2.9,8.2-8.4,8.2-14.1
	c0-14.1-42-99-63.9-99c-2.8,0-5.7,0.7-8.2,2.2l-46.7,27c-17.7-15.2-38.2-27-60.6-35V21.3c0-7.5-5.2-14.3-12.5-15.8
	C278.3,2,261.1,0,243.5,0S208.6,2,192,5.5c-7.4,1.5-12.5,8.3-12.5,15.8v53.9c-22.4,7.9-42.9,19.8-60.6,35l-46.7-27
	c-2.6-1.5-5.4-2.2-8.2-2.2C44.1,81,0,162.9,0,180c0,5.7,3.1,11.1,8.2,14.1L54.8,221c-2.1,11.4-3.3,23-3.3,35c0,12,1.2,23.6,3.3,35
	L8.2,317.9C3.1,320.9,0,326.3,0,332c0,14.1,42,99,63.9,99c2.8,0,5.7-0.7,8.2-2.2l46.7-27c17.7,15.2,38.2,27,60.6,35v53.9
	c0,7.5,5.2,14.3,12.5,15.8c16.6,3.5,33.8,5.5,51.5,5.5s34.8-2,51.5-5.5c7.4-1.5,12.5-8.3,12.5-15.8v-53.9
	c22.4-7.9,42.9-19.8,60.6-35l46.7,27c2.6,1.5,5.4,2.2,8.2,2.2C442.8,431,487,349.1,487,332z M243.5,336c-44.1,0-80-35.9-80-80
	s35.9-80,80-80s80,35.9,80,80S287.6,336,243.5,336z"/>
</svg>
